<mxfile host="Electron" agent="Mozilla/5.0 (Windows NT 10.0; Win64; x64) AppleWebKit/537.36 (KHTML, like Gecko) draw.io/26.0.4 Chrome/128.0.6613.186 Electron/32.2.5 Safari/537.36" version="26.0.4">
  <diagram name="Страница — 1" id="y5HqpjrtNBBaZ-i285Dn">
    <mxGraphModel dx="2242" dy="2817" grid="1" gridSize="10" guides="1" tooltips="1" connect="1" arrows="1" fold="1" page="1" pageScale="1" pageWidth="827" pageHeight="1169" math="0" shadow="0">
      <root>
        <mxCell id="0" />
        <mxCell id="1" parent="0" />
        <mxCell id="WwrB9D_42OGNfSYu9JOr-15" value="" style="edgeStyle=orthogonalEdgeStyle;rounded=0;orthogonalLoop=1;jettySize=auto;html=1;" edge="1" parent="1" source="WwrB9D_42OGNfSYu9JOr-1" target="WwrB9D_42OGNfSYu9JOr-14">
          <mxGeometry relative="1" as="geometry" />
        </mxCell>
        <mxCell id="WwrB9D_42OGNfSYu9JOr-1" value="Анализ внутренних процессов" style="points=[[0.25,0,0],[0.5,0,0],[0.75,0,0],[1,0.25,0],[1,0.5,0],[1,0.75,0],[0.75,1,0],[0.5,1,0],[0.25,1,0],[0,0.75,0],[0,0.5,0],[0,0.25,0]];shape=mxgraph.bpmn.task;whiteSpace=wrap;rectStyle=rounded;size=10;html=1;container=1;expand=0;collapsible=0;taskMarker=abstract;isLoopSub=1;fillColor=#d5e8d4;strokeColor=#82b366;" vertex="1" parent="1">
          <mxGeometry x="340" y="390.0000000000002" width="120" height="80" as="geometry" />
        </mxCell>
        <mxCell id="WwrB9D_42OGNfSYu9JOr-11" value="" style="edgeStyle=orthogonalEdgeStyle;rounded=0;orthogonalLoop=1;jettySize=auto;html=1;" edge="1" parent="1" source="WwrB9D_42OGNfSYu9JOr-2" target="WwrB9D_42OGNfSYu9JOr-10">
          <mxGeometry relative="1" as="geometry" />
        </mxCell>
        <mxCell id="WwrB9D_42OGNfSYu9JOr-2" value="Анализ потоков документации" style="points=[[0.25,0,0],[0.5,0,0],[0.75,0,0],[1,0.25,0],[1,0.5,0],[1,0.75,0],[0.75,1,0],[0.5,1,0],[0.25,1,0],[0,0.75,0],[0,0.5,0],[0,0.25,0]];shape=mxgraph.bpmn.task;whiteSpace=wrap;rectStyle=rounded;size=10;html=1;container=1;expand=0;collapsible=0;taskMarker=abstract;isLoopSub=1;" vertex="1" parent="1">
          <mxGeometry x="340" y="-159.99999999999977" width="120" height="80" as="geometry" />
        </mxCell>
        <mxCell id="WwrB9D_42OGNfSYu9JOr-9" value="" style="edgeStyle=orthogonalEdgeStyle;rounded=0;orthogonalLoop=1;jettySize=auto;html=1;" edge="1" parent="1" source="WwrB9D_42OGNfSYu9JOr-4" target="WwrB9D_42OGNfSYu9JOr-8">
          <mxGeometry relative="1" as="geometry" />
        </mxCell>
        <mxCell id="WwrB9D_42OGNfSYu9JOr-4" value="Анализ клиентских процессов" style="points=[[0.25,0,0],[0.5,0,0],[0.75,0,0],[1,0.25,0],[1,0.5,0],[1,0.75,0],[0.75,1,0],[0.5,1,0],[0.25,1,0],[0,0.75,0],[0,0.5,0],[0,0.25,0]];shape=mxgraph.bpmn.task;whiteSpace=wrap;rectStyle=rounded;size=10;html=1;container=1;expand=0;collapsible=0;taskMarker=abstract;isLoopSub=1;fillColor=#fff2cc;strokeColor=#d6b656;" vertex="1" parent="1">
          <mxGeometry x="340" y="160.00000000000023" width="120" height="80" as="geometry" />
        </mxCell>
        <mxCell id="WwrB9D_42OGNfSYu9JOr-5" value="" style="points=[[0.145,0.145,0],[0.5,0,0],[0.855,0.145,0],[1,0.5,0],[0.855,0.855,0],[0.5,1,0],[0.145,0.855,0],[0,0.5,0]];shape=mxgraph.bpmn.event;html=1;verticalLabelPosition=bottom;labelBackgroundColor=#ffffff;verticalAlign=top;align=center;perimeter=ellipsePerimeter;outlineConnect=0;aspect=fixed;outline=standard;symbol=general;" vertex="1" parent="1">
          <mxGeometry x="70" y="75" width="50" height="50" as="geometry" />
        </mxCell>
        <mxCell id="WwrB9D_42OGNfSYu9JOr-6" value="" style="points=[[0.145,0.145,0],[0.5,0,0],[0.855,0.145,0],[1,0.5,0],[0.855,0.855,0],[0.5,1,0],[0.145,0.855,0],[0,0.5,0]];shape=mxgraph.bpmn.event;html=1;verticalLabelPosition=bottom;labelBackgroundColor=#ffffff;verticalAlign=top;align=center;perimeter=ellipsePerimeter;outlineConnect=0;aspect=fixed;outline=end;symbol=terminate2;" vertex="1" parent="1">
          <mxGeometry x="2060" y="95" width="50" height="50" as="geometry" />
        </mxCell>
        <mxCell id="WwrB9D_42OGNfSYu9JOr-8" value="Составление карты AS IS" style="points=[[0.25,0,0],[0.5,0,0],[0.75,0,0],[1,0.25,0],[1,0.5,0],[1,0.75,0],[0.75,1,0],[0.5,1,0],[0.25,1,0],[0,0.75,0],[0,0.5,0],[0,0.25,0]];shape=mxgraph.bpmn.task;whiteSpace=wrap;rectStyle=rounded;size=10;html=1;container=1;expand=0;collapsible=0;taskMarker=abstract;isLoopSub=1;fillColor=#fff2cc;strokeColor=#d6b656;" vertex="1" parent="1">
          <mxGeometry x="540" y="160.00000000000023" width="120" height="80" as="geometry" />
        </mxCell>
        <mxCell id="WwrB9D_42OGNfSYu9JOr-13" value="" style="edgeStyle=orthogonalEdgeStyle;rounded=0;orthogonalLoop=1;jettySize=auto;html=1;" edge="1" parent="1" source="WwrB9D_42OGNfSYu9JOr-10" target="WwrB9D_42OGNfSYu9JOr-12">
          <mxGeometry relative="1" as="geometry" />
        </mxCell>
        <mxCell id="WwrB9D_42OGNfSYu9JOr-10" value="Сбор всех возможных данных, консолидация" style="points=[[0.25,0,0],[0.5,0,0],[0.75,0,0],[1,0.25,0],[1,0.5,0],[1,0.75,0],[0.75,1,0],[0.5,1,0],[0.25,1,0],[0,0.75,0],[0,0.5,0],[0,0.25,0]];shape=mxgraph.bpmn.task;whiteSpace=wrap;rectStyle=rounded;size=10;html=1;container=1;expand=0;collapsible=0;taskMarker=abstract;isLoopSub=1;" vertex="1" parent="1">
          <mxGeometry x="540" y="-159.99999999999977" width="120" height="80" as="geometry" />
        </mxCell>
        <mxCell id="WwrB9D_42OGNfSYu9JOr-12" value="Анализ всей документации, рассчет" style="points=[[0.25,0,0],[0.5,0,0],[0.75,0,0],[1,0.25,0],[1,0.5,0],[1,0.75,0],[0.75,1,0],[0.5,1,0],[0.25,1,0],[0,0.75,0],[0,0.5,0],[0,0.25,0]];shape=mxgraph.bpmn.task;whiteSpace=wrap;rectStyle=rounded;size=10;html=1;container=1;expand=0;collapsible=0;taskMarker=abstract;isLoopSub=1;" vertex="1" parent="1">
          <mxGeometry x="750" y="-159.99999999999977" width="120" height="80" as="geometry" />
        </mxCell>
        <mxCell id="WwrB9D_42OGNfSYu9JOr-14" value="Составление карты AS IS" style="points=[[0.25,0,0],[0.5,0,0],[0.75,0,0],[1,0.25,0],[1,0.5,0],[1,0.75,0],[0.75,1,0],[0.5,1,0],[0.25,1,0],[0,0.75,0],[0,0.5,0],[0,0.25,0]];shape=mxgraph.bpmn.task;whiteSpace=wrap;rectStyle=rounded;size=10;html=1;container=1;expand=0;collapsible=0;taskMarker=abstract;isLoopSub=1;fillColor=#d5e8d4;strokeColor=#82b366;" vertex="1" parent="1">
          <mxGeometry x="540" y="390.0000000000002" width="120" height="80" as="geometry" />
        </mxCell>
        <mxCell id="WwrB9D_42OGNfSYu9JOr-26" value="" style="edgeStyle=orthogonalEdgeStyle;rounded=0;orthogonalLoop=1;jettySize=auto;html=1;entryX=0;entryY=0.5;entryDx=0;entryDy=0;entryPerimeter=0;" edge="1" parent="1" source="WwrB9D_42OGNfSYu9JOr-16" target="WwrB9D_42OGNfSYu9JOr-35">
          <mxGeometry relative="1" as="geometry">
            <mxPoint x="910" y="290.00000000000045" as="targetPoint" />
          </mxGeometry>
        </mxCell>
        <mxCell id="WwrB9D_42OGNfSYu9JOr-16" value="&lt;p data-pm-slice=&quot;1 1 []&quot; class=&quot;&quot;&gt;Описание верхнеуровневых процессов - Value Stream Mapping&lt;/p&gt;" style="points=[[0.25,0,0],[0.5,0,0],[0.75,0,0],[1,0.25,0],[1,0.5,0],[1,0.75,0],[0.75,1,0],[0.5,1,0],[0.25,1,0],[0,0.75,0],[0,0.5,0],[0,0.25,0]];shape=mxgraph.bpmn.task;whiteSpace=wrap;rectStyle=rounded;size=10;html=1;container=1;expand=0;collapsible=0;taskMarker=abstract;isLoopSub=1;fillColor=#dae8fc;strokeColor=#6c8ebf;" vertex="1" parent="1">
          <mxGeometry x="740" y="270.0000000000002" width="120" height="80" as="geometry" />
        </mxCell>
        <mxCell id="WwrB9D_42OGNfSYu9JOr-17" style="edgeStyle=orthogonalEdgeStyle;rounded=0;orthogonalLoop=1;jettySize=auto;html=1;exitX=1;exitY=0.5;exitDx=0;exitDy=0;exitPerimeter=0;entryX=0;entryY=0.25;entryDx=0;entryDy=0;entryPerimeter=0;" edge="1" parent="1" source="WwrB9D_42OGNfSYu9JOr-8" target="WwrB9D_42OGNfSYu9JOr-16">
          <mxGeometry relative="1" as="geometry" />
        </mxCell>
        <mxCell id="WwrB9D_42OGNfSYu9JOr-18" style="edgeStyle=orthogonalEdgeStyle;rounded=0;orthogonalLoop=1;jettySize=auto;html=1;exitX=1;exitY=0.5;exitDx=0;exitDy=0;exitPerimeter=0;entryX=0;entryY=0.75;entryDx=0;entryDy=0;entryPerimeter=0;" edge="1" parent="1" source="WwrB9D_42OGNfSYu9JOr-14" target="WwrB9D_42OGNfSYu9JOr-16">
          <mxGeometry relative="1" as="geometry" />
        </mxCell>
        <mxCell id="WwrB9D_42OGNfSYu9JOr-22" value="" style="edgeStyle=orthogonalEdgeStyle;rounded=0;orthogonalLoop=1;jettySize=auto;html=1;" edge="1" parent="1" source="WwrB9D_42OGNfSYu9JOr-19" target="WwrB9D_42OGNfSYu9JOr-21">
          <mxGeometry relative="1" as="geometry" />
        </mxCell>
        <mxCell id="WwrB9D_42OGNfSYu9JOr-19" value="Анализ ЦА клиента" style="points=[[0.25,0,0],[0.5,0,0],[0.75,0,0],[1,0.25,0],[1,0.5,0],[1,0.75,0],[0.75,1,0],[0.5,1,0],[0.25,1,0],[0,0.75,0],[0,0.5,0],[0,0.25,0]];shape=mxgraph.bpmn.task;whiteSpace=wrap;rectStyle=rounded;size=10;html=1;container=1;expand=0;collapsible=0;taskMarker=abstract;isLoopSub=1;" vertex="1" parent="1">
          <mxGeometry x="540" y="-319.9999999999998" width="120" height="80" as="geometry" />
        </mxCell>
        <mxCell id="WwrB9D_42OGNfSYu9JOr-20" style="edgeStyle=orthogonalEdgeStyle;rounded=0;orthogonalLoop=1;jettySize=auto;html=1;exitX=1;exitY=0.5;exitDx=0;exitDy=0;exitPerimeter=0;entryX=0;entryY=0.5;entryDx=0;entryDy=0;entryPerimeter=0;" edge="1" parent="1" source="WwrB9D_42OGNfSYu9JOr-2" target="WwrB9D_42OGNfSYu9JOr-19">
          <mxGeometry relative="1" as="geometry" />
        </mxCell>
        <mxCell id="WwrB9D_42OGNfSYu9JOr-21" value="Создание требований к документации клиента" style="points=[[0.25,0,0],[0.5,0,0],[0.75,0,0],[1,0.25,0],[1,0.5,0],[1,0.75,0],[0.75,1,0],[0.5,1,0],[0.25,1,0],[0,0.75,0],[0,0.5,0],[0,0.25,0]];shape=mxgraph.bpmn.task;whiteSpace=wrap;rectStyle=rounded;size=10;html=1;container=1;expand=0;collapsible=0;taskMarker=abstract;isLoopSub=1;" vertex="1" parent="1">
          <mxGeometry x="750" y="-319.9999999999998" width="120" height="80" as="geometry" />
        </mxCell>
        <mxCell id="WwrB9D_42OGNfSYu9JOr-42" value="" style="edgeStyle=orthogonalEdgeStyle;rounded=0;orthogonalLoop=1;jettySize=auto;html=1;" edge="1" parent="1" source="WwrB9D_42OGNfSYu9JOr-23" target="WwrB9D_42OGNfSYu9JOr-41">
          <mxGeometry relative="1" as="geometry" />
        </mxCell>
        <mxCell id="WwrB9D_42OGNfSYu9JOr-23" value="Создание требований к отчетам" style="points=[[0.25,0,0],[0.5,0,0],[0.75,0,0],[1,0.25,0],[1,0.5,0],[1,0.75,0],[0.75,1,0],[0.5,1,0],[0.25,1,0],[0,0.75,0],[0,0.5,0],[0,0.25,0]];shape=mxgraph.bpmn.task;whiteSpace=wrap;rectStyle=rounded;size=10;html=1;container=1;expand=0;collapsible=0;taskMarker=abstract;isLoopSub=1;" vertex="1" parent="1">
          <mxGeometry x="950" y="-159.99999999999977" width="120" height="80" as="geometry" />
        </mxCell>
        <mxCell id="WwrB9D_42OGNfSYu9JOr-24" style="edgeStyle=orthogonalEdgeStyle;rounded=0;orthogonalLoop=1;jettySize=auto;html=1;exitX=1;exitY=0.5;exitDx=0;exitDy=0;exitPerimeter=0;entryX=0;entryY=0.5;entryDx=0;entryDy=0;entryPerimeter=0;" edge="1" parent="1" source="WwrB9D_42OGNfSYu9JOr-12" target="WwrB9D_42OGNfSYu9JOr-23">
          <mxGeometry relative="1" as="geometry" />
        </mxCell>
        <mxCell id="WwrB9D_42OGNfSYu9JOr-27" value="Сбор потоков документов и согласований. Поверхностно Орг. структура" style="points=[[0.25,0,0],[0.5,0,0],[0.75,0,0],[1,0.25,0],[1,0.5,0],[1,0.75,0],[0.75,1,0],[0.5,1,0],[0.25,1,0],[0,0.75,0],[0,0.5,0],[0,0.25,0]];shape=mxgraph.bpmn.task;whiteSpace=wrap;rectStyle=rounded;size=10;html=1;container=1;expand=0;collapsible=0;taskMarker=abstract;isLoopSub=1;" vertex="1" parent="1">
          <mxGeometry x="540" y="-4.999999999999773" width="120" height="80" as="geometry" />
        </mxCell>
        <mxCell id="WwrB9D_42OGNfSYu9JOr-39" value="" style="edgeStyle=orthogonalEdgeStyle;rounded=0;orthogonalLoop=1;jettySize=auto;html=1;" edge="1" parent="1" source="WwrB9D_42OGNfSYu9JOr-28" target="WwrB9D_42OGNfSYu9JOr-38">
          <mxGeometry relative="1" as="geometry" />
        </mxCell>
        <mxCell id="WwrB9D_42OGNfSYu9JOr-28" value="Описание процессов хода AS IS - карта согласований" style="points=[[0.25,0,0],[0.5,0,0],[0.75,0,0],[1,0.25,0],[1,0.5,0],[1,0.75,0],[0.75,1,0],[0.5,1,0],[0.25,1,0],[0,0.75,0],[0,0.5,0],[0,0.25,0]];shape=mxgraph.bpmn.task;whiteSpace=wrap;rectStyle=rounded;size=10;html=1;container=1;expand=0;collapsible=0;taskMarker=abstract;isLoopSub=1;" vertex="1" parent="1">
          <mxGeometry x="750" y="-4.999999999999773" width="120" height="80" as="geometry" />
        </mxCell>
        <mxCell id="WwrB9D_42OGNfSYu9JOr-29" style="edgeStyle=orthogonalEdgeStyle;rounded=0;orthogonalLoop=1;jettySize=auto;html=1;exitX=1;exitY=0.5;exitDx=0;exitDy=0;exitPerimeter=0;entryX=0;entryY=0.5;entryDx=0;entryDy=0;entryPerimeter=0;" edge="1" parent="1" source="WwrB9D_42OGNfSYu9JOr-27" target="WwrB9D_42OGNfSYu9JOr-28">
          <mxGeometry relative="1" as="geometry" />
        </mxCell>
        <mxCell id="WwrB9D_42OGNfSYu9JOr-30" style="edgeStyle=orthogonalEdgeStyle;rounded=0;orthogonalLoop=1;jettySize=auto;html=1;exitX=1;exitY=0.5;exitDx=0;exitDy=0;exitPerimeter=0;entryX=0;entryY=0.5;entryDx=0;entryDy=0;entryPerimeter=0;" edge="1" parent="1" source="WwrB9D_42OGNfSYu9JOr-2" target="WwrB9D_42OGNfSYu9JOr-27">
          <mxGeometry relative="1" as="geometry" />
        </mxCell>
        <mxCell id="WwrB9D_42OGNfSYu9JOr-34" value="" style="edgeStyle=orthogonalEdgeStyle;rounded=0;orthogonalLoop=1;jettySize=auto;html=1;" edge="1" parent="1" source="WwrB9D_42OGNfSYu9JOr-31" target="WwrB9D_42OGNfSYu9JOr-33">
          <mxGeometry relative="1" as="geometry" />
        </mxCell>
        <mxCell id="WwrB9D_42OGNfSYu9JOr-31" value="Создание артефактов бизнес-процессы BPMN" style="points=[[0.25,0,0],[0.5,0,0],[0.75,0,0],[1,0.25,0],[1,0.5,0],[1,0.75,0],[0.75,1,0],[0.5,1,0],[0.25,1,0],[0,0.75,0],[0,0.5,0],[0,0.25,0]];shape=mxgraph.bpmn.task;whiteSpace=wrap;rectStyle=rounded;size=10;html=1;container=1;expand=0;collapsible=0;taskMarker=abstract;isLoopSub=1;fillColor=#d5e8d4;strokeColor=#82b366;" vertex="1" parent="1">
          <mxGeometry x="920" y="390.0000000000002" width="120" height="80" as="geometry" />
        </mxCell>
        <mxCell id="WwrB9D_42OGNfSYu9JOr-32" style="edgeStyle=orthogonalEdgeStyle;rounded=0;orthogonalLoop=1;jettySize=auto;html=1;exitX=1;exitY=0.5;exitDx=0;exitDy=0;exitPerimeter=0;entryX=0;entryY=0.5;entryDx=0;entryDy=0;entryPerimeter=0;" edge="1" parent="1" source="WwrB9D_42OGNfSYu9JOr-16" target="WwrB9D_42OGNfSYu9JOr-31">
          <mxGeometry relative="1" as="geometry">
            <mxPoint x="1030" y="290.00000000000045" as="sourcePoint" />
          </mxGeometry>
        </mxCell>
        <mxCell id="WwrB9D_42OGNfSYu9JOr-33" value="Создание TO BE" style="points=[[0.25,0,0],[0.5,0,0],[0.75,0,0],[1,0.25,0],[1,0.5,0],[1,0.75,0],[0.75,1,0],[0.5,1,0],[0.25,1,0],[0,0.75,0],[0,0.5,0],[0,0.25,0]];shape=mxgraph.bpmn.task;whiteSpace=wrap;rectStyle=rounded;size=10;html=1;container=1;expand=0;collapsible=0;taskMarker=abstract;isLoopSub=1;fillColor=#d5e8d4;strokeColor=#82b366;" vertex="1" parent="1">
          <mxGeometry x="1120" y="390.0000000000002" width="120" height="80" as="geometry" />
        </mxCell>
        <mxCell id="WwrB9D_42OGNfSYu9JOr-37" value="" style="edgeStyle=orthogonalEdgeStyle;rounded=0;orthogonalLoop=1;jettySize=auto;html=1;" edge="1" parent="1" source="WwrB9D_42OGNfSYu9JOr-35" target="WwrB9D_42OGNfSYu9JOr-36">
          <mxGeometry relative="1" as="geometry" />
        </mxCell>
        <mxCell id="WwrB9D_42OGNfSYu9JOr-35" value="Создание артефактов Service Blueprint или CJM" style="points=[[0.25,0,0],[0.5,0,0],[0.75,0,0],[1,0.25,0],[1,0.5,0],[1,0.75,0],[0.75,1,0],[0.5,1,0],[0.25,1,0],[0,0.75,0],[0,0.5,0],[0,0.25,0]];shape=mxgraph.bpmn.task;whiteSpace=wrap;rectStyle=rounded;size=10;html=1;container=1;expand=0;collapsible=0;taskMarker=abstract;isLoopSub=1;fillColor=#fff2cc;strokeColor=#d6b656;" vertex="1" parent="1">
          <mxGeometry x="920" y="160.00000000000023" width="120" height="80" as="geometry" />
        </mxCell>
        <mxCell id="WwrB9D_42OGNfSYu9JOr-36" value="Создание TO BE" style="points=[[0.25,0,0],[0.5,0,0],[0.75,0,0],[1,0.25,0],[1,0.5,0],[1,0.75,0],[0.75,1,0],[0.5,1,0],[0.25,1,0],[0,0.75,0],[0,0.5,0],[0,0.25,0]];shape=mxgraph.bpmn.task;whiteSpace=wrap;rectStyle=rounded;size=10;html=1;container=1;expand=0;collapsible=0;taskMarker=abstract;isLoopSub=1;fillColor=#fff2cc;strokeColor=#d6b656;" vertex="1" parent="1">
          <mxGeometry x="1120" y="160.00000000000023" width="120" height="80" as="geometry" />
        </mxCell>
        <mxCell id="WwrB9D_42OGNfSYu9JOr-38" value="TO BE" style="points=[[0.25,0,0],[0.5,0,0],[0.75,0,0],[1,0.25,0],[1,0.5,0],[1,0.75,0],[0.75,1,0],[0.5,1,0],[0.25,1,0],[0,0.75,0],[0,0.5,0],[0,0.25,0]];shape=mxgraph.bpmn.task;whiteSpace=wrap;rectStyle=rounded;size=10;html=1;container=1;expand=0;collapsible=0;taskMarker=abstract;isLoopSub=1;" vertex="1" parent="1">
          <mxGeometry x="950" y="-4.999999999999773" width="120" height="80" as="geometry" />
        </mxCell>
        <mxCell id="WwrB9D_42OGNfSYu9JOr-40" style="edgeStyle=orthogonalEdgeStyle;rounded=0;orthogonalLoop=1;jettySize=auto;html=1;exitX=1;exitY=0.5;exitDx=0;exitDy=0;exitPerimeter=0;entryX=0.5;entryY=0;entryDx=0;entryDy=0;entryPerimeter=0;" edge="1" parent="1" source="WwrB9D_42OGNfSYu9JOr-21" target="WwrB9D_42OGNfSYu9JOr-6">
          <mxGeometry relative="1" as="geometry" />
        </mxCell>
        <mxCell id="WwrB9D_42OGNfSYu9JOr-41" value="Создание TO BE процессов для автоматизации" style="points=[[0.25,0,0],[0.5,0,0],[0.75,0,0],[1,0.25,0],[1,0.5,0],[1,0.75,0],[0.75,1,0],[0.5,1,0],[0.25,1,0],[0,0.75,0],[0,0.5,0],[0,0.25,0]];shape=mxgraph.bpmn.task;whiteSpace=wrap;rectStyle=rounded;size=10;html=1;container=1;expand=0;collapsible=0;taskMarker=abstract;isLoopSub=1;" vertex="1" parent="1">
          <mxGeometry x="1150" y="-159.99999999999977" width="120" height="80" as="geometry" />
        </mxCell>
        <mxCell id="WwrB9D_42OGNfSYu9JOr-43" style="edgeStyle=orthogonalEdgeStyle;rounded=0;orthogonalLoop=1;jettySize=auto;html=1;exitX=0.5;exitY=0;exitDx=0;exitDy=0;exitPerimeter=0;entryX=0;entryY=0.5;entryDx=0;entryDy=0;entryPerimeter=0;" edge="1" parent="1" source="WwrB9D_42OGNfSYu9JOr-5" target="WwrB9D_42OGNfSYu9JOr-2">
          <mxGeometry relative="1" as="geometry">
            <Array as="points">
              <mxPoint x="160" y="75" />
              <mxPoint x="160" y="-120" />
            </Array>
          </mxGeometry>
        </mxCell>
        <mxCell id="WwrB9D_42OGNfSYu9JOr-44" style="edgeStyle=orthogonalEdgeStyle;rounded=0;orthogonalLoop=1;jettySize=auto;html=1;exitX=1;exitY=0.5;exitDx=0;exitDy=0;exitPerimeter=0;entryX=0;entryY=0.5;entryDx=0;entryDy=0;entryPerimeter=0;" edge="1" parent="1" source="WwrB9D_42OGNfSYu9JOr-5" target="WwrB9D_42OGNfSYu9JOr-4">
          <mxGeometry relative="1" as="geometry" />
        </mxCell>
        <mxCell id="WwrB9D_42OGNfSYu9JOr-45" style="edgeStyle=orthogonalEdgeStyle;rounded=0;orthogonalLoop=1;jettySize=auto;html=1;exitX=0.5;exitY=1;exitDx=0;exitDy=0;exitPerimeter=0;entryX=0;entryY=0.5;entryDx=0;entryDy=0;entryPerimeter=0;" edge="1" parent="1" source="WwrB9D_42OGNfSYu9JOr-5" target="WwrB9D_42OGNfSYu9JOr-1">
          <mxGeometry relative="1" as="geometry">
            <Array as="points">
              <mxPoint x="160" y="125" />
              <mxPoint x="160" y="430" />
            </Array>
          </mxGeometry>
        </mxCell>
        <mxCell id="WwrB9D_42OGNfSYu9JOr-46" value="&lt;p data-pm-slice=&quot;1 1 []&quot; class=&quot;&quot;&gt;Все в кучу TO BE&lt;/p&gt;" style="points=[[0.25,0,0],[0.5,0,0],[0.75,0,0],[1,0.25,0],[1,0.5,0],[1,0.75,0],[0.75,1,0],[0.5,1,0],[0.25,1,0],[0,0.75,0],[0,0.5,0],[0,0.25,0]];shape=mxgraph.bpmn.task;whiteSpace=wrap;rectStyle=rounded;size=10;html=1;container=1;expand=0;collapsible=0;taskMarker=abstract;isLoopSub=1;fillColor=#dae8fc;strokeColor=#6c8ebf;" vertex="1" parent="1">
          <mxGeometry x="1300" y="80.00000000000023" width="120" height="80" as="geometry" />
        </mxCell>
        <mxCell id="WwrB9D_42OGNfSYu9JOr-47" style="edgeStyle=orthogonalEdgeStyle;rounded=0;orthogonalLoop=1;jettySize=auto;html=1;exitX=1;exitY=0.5;exitDx=0;exitDy=0;exitPerimeter=0;entryX=0;entryY=0.5;entryDx=0;entryDy=0;entryPerimeter=0;" edge="1" parent="1" source="WwrB9D_42OGNfSYu9JOr-36" target="WwrB9D_42OGNfSYu9JOr-46">
          <mxGeometry relative="1" as="geometry" />
        </mxCell>
        <mxCell id="WwrB9D_42OGNfSYu9JOr-48" style="edgeStyle=orthogonalEdgeStyle;rounded=0;orthogonalLoop=1;jettySize=auto;html=1;exitX=1;exitY=0.5;exitDx=0;exitDy=0;exitPerimeter=0;entryX=0.5;entryY=1;entryDx=0;entryDy=0;entryPerimeter=0;" edge="1" parent="1" source="WwrB9D_42OGNfSYu9JOr-33" target="WwrB9D_42OGNfSYu9JOr-46">
          <mxGeometry relative="1" as="geometry" />
        </mxCell>
        <mxCell id="WwrB9D_42OGNfSYu9JOr-49" style="edgeStyle=orthogonalEdgeStyle;rounded=0;orthogonalLoop=1;jettySize=auto;html=1;exitX=1;exitY=0.5;exitDx=0;exitDy=0;exitPerimeter=0;entryX=0;entryY=0.5;entryDx=0;entryDy=0;entryPerimeter=0;" edge="1" parent="1" source="WwrB9D_42OGNfSYu9JOr-38" target="WwrB9D_42OGNfSYu9JOr-46">
          <mxGeometry relative="1" as="geometry" />
        </mxCell>
        <mxCell id="WwrB9D_42OGNfSYu9JOr-50" style="edgeStyle=orthogonalEdgeStyle;rounded=0;orthogonalLoop=1;jettySize=auto;html=1;exitX=1;exitY=0.5;exitDx=0;exitDy=0;exitPerimeter=0;entryX=0.5;entryY=0;entryDx=0;entryDy=0;entryPerimeter=0;" edge="1" parent="1" source="WwrB9D_42OGNfSYu9JOr-41" target="WwrB9D_42OGNfSYu9JOr-46">
          <mxGeometry relative="1" as="geometry" />
        </mxCell>
        <mxCell id="WwrB9D_42OGNfSYu9JOr-51" value="Создаем документ требований к автоматизации ИТ" style="points=[[0.25,0,0],[0.5,0,0],[0.75,0,0],[1,0.25,0],[1,0.5,0],[1,0.75,0],[0.75,1,0],[0.5,1,0],[0.25,1,0],[0,0.75,0],[0,0.5,0],[0,0.25,0]];shape=mxgraph.bpmn.task;whiteSpace=wrap;rectStyle=rounded;size=10;html=1;container=1;expand=0;collapsible=0;taskMarker=abstract;isLoopSub=1;fillColor=#dae8fc;strokeColor=#6c8ebf;" vertex="1" parent="1">
          <mxGeometry x="1680" y="80.00000000000023" width="120" height="80" as="geometry" />
        </mxCell>
        <mxCell id="WwrB9D_42OGNfSYu9JOr-52" value="Создаем документы требований к изменению процессов и план" style="points=[[0.25,0,0],[0.5,0,0],[0.75,0,0],[1,0.25,0],[1,0.5,0],[1,0.75,0],[0.75,1,0],[0.5,1,0],[0.25,1,0],[0,0.75,0],[0,0.5,0],[0,0.25,0]];shape=mxgraph.bpmn.task;whiteSpace=wrap;rectStyle=rounded;size=10;html=1;container=1;expand=0;collapsible=0;taskMarker=abstract;isLoopSub=1;fillColor=#dae8fc;strokeColor=#6c8ebf;" vertex="1" parent="1">
          <mxGeometry x="1490" y="80.00000000000023" width="120" height="80" as="geometry" />
        </mxCell>
        <mxCell id="WwrB9D_42OGNfSYu9JOr-53" style="edgeStyle=orthogonalEdgeStyle;rounded=0;orthogonalLoop=1;jettySize=auto;html=1;exitX=1;exitY=0.5;exitDx=0;exitDy=0;exitPerimeter=0;entryX=0;entryY=0.5;entryDx=0;entryDy=0;entryPerimeter=0;" edge="1" parent="1" source="WwrB9D_42OGNfSYu9JOr-46" target="WwrB9D_42OGNfSYu9JOr-52">
          <mxGeometry relative="1" as="geometry" />
        </mxCell>
        <mxCell id="WwrB9D_42OGNfSYu9JOr-54" style="edgeStyle=orthogonalEdgeStyle;rounded=0;orthogonalLoop=1;jettySize=auto;html=1;exitX=1;exitY=0.5;exitDx=0;exitDy=0;exitPerimeter=0;entryX=0;entryY=0.5;entryDx=0;entryDy=0;entryPerimeter=0;" edge="1" parent="1" source="WwrB9D_42OGNfSYu9JOr-52" target="WwrB9D_42OGNfSYu9JOr-51">
          <mxGeometry relative="1" as="geometry" />
        </mxCell>
        <mxCell id="WwrB9D_42OGNfSYu9JOr-58" style="edgeStyle=orthogonalEdgeStyle;rounded=0;orthogonalLoop=1;jettySize=auto;html=1;exitX=1;exitY=0.5;exitDx=0;exitDy=0;exitPerimeter=0;" edge="1" parent="1" source="WwrB9D_42OGNfSYu9JOr-55" target="WwrB9D_42OGNfSYu9JOr-6">
          <mxGeometry relative="1" as="geometry" />
        </mxCell>
        <mxCell id="WwrB9D_42OGNfSYu9JOr-55" value="Создаем архитектуру ИТ и детальные ТЗ (опционально)" style="points=[[0.25,0,0],[0.5,0,0],[0.75,0,0],[1,0.25,0],[1,0.5,0],[1,0.75,0],[0.75,1,0],[0.5,1,0],[0.25,1,0],[0,0.75,0],[0,0.5,0],[0,0.25,0]];shape=mxgraph.bpmn.task;whiteSpace=wrap;rectStyle=rounded;size=10;html=1;container=1;expand=0;collapsible=0;taskMarker=abstract;isLoopSub=1;fillColor=#dae8fc;strokeColor=#6c8ebf;" vertex="1" parent="1">
          <mxGeometry x="1860" y="10.000000000000227" width="120" height="80" as="geometry" />
        </mxCell>
        <mxCell id="WwrB9D_42OGNfSYu9JOr-56" style="edgeStyle=orthogonalEdgeStyle;rounded=0;orthogonalLoop=1;jettySize=auto;html=1;exitX=1;exitY=0.5;exitDx=0;exitDy=0;exitPerimeter=0;entryX=0;entryY=0.5;entryDx=0;entryDy=0;entryPerimeter=0;" edge="1" parent="1" source="WwrB9D_42OGNfSYu9JOr-51" target="WwrB9D_42OGNfSYu9JOr-6">
          <mxGeometry relative="1" as="geometry" />
        </mxCell>
        <mxCell id="WwrB9D_42OGNfSYu9JOr-57" style="edgeStyle=orthogonalEdgeStyle;rounded=0;orthogonalLoop=1;jettySize=auto;html=1;exitX=0.5;exitY=0;exitDx=0;exitDy=0;exitPerimeter=0;entryX=0;entryY=0.5;entryDx=0;entryDy=0;entryPerimeter=0;" edge="1" parent="1" source="WwrB9D_42OGNfSYu9JOr-51" target="WwrB9D_42OGNfSYu9JOr-55">
          <mxGeometry relative="1" as="geometry" />
        </mxCell>
      </root>
    </mxGraphModel>
  </diagram>
</mxfile>
